Coordinates
version=1
nRows=16
nColumns=22
inDegrees=yes

Units are S.I. units (second, meters, Newtons, ...)
If the header above contains a line with 'inDegrees', this indicates whether rotational values are in degrees (yes) or radians (no).

endheader
time	pelvis_tilt	pelvis_list	pelvis_rotation	pelvis_tx	pelvis_ty	pelvis_tz	hip_flexion_r	hip_adduction_r	hip_rotation_r	knee_angle_r	ankle_angle_r	subtalar_angle_r	hip_flexion_l	hip_adduction_l	hip_rotation_l	knee_angle_l	ankle_angle_l	subtalar_angle_l	lumbar_extension	lumbar_bending	lumbar_rotation
      1.94000000	      6.35336822	     -0.00774298	    141.54869593	     -0.33878192	      0.95275047	      0.65268796	     16.39987609	     14.28412680	    -16.60787693	    -25.22153481	     11.98595669	     -7.31992134	     21.13879193	    -12.43336342	     12.84850646	    -51.92067327	      9.29820504	     -0.58991149	     -0.56968492	      9.38483436	     -6.04605525
      1.95000000	      6.35049776	     -0.21158736	    140.06514278	     -0.34208848	      0.95274711	      0.64418334	     15.51705035	     14.76951616	    -15.12027792	    -24.79644123	     12.10649497	     -7.39650016	     21.82393947	    -12.41160385	     13.04957348	    -50.48052868	      9.79886526	     -0.82663080	     -0.50615522	      9.17452135	     -5.56129002
      1.96000000	      6.32749859	     -0.43547408	    138.53216963	     -0.34528083	      0.95265578	      0.63573540	     14.62417980	     15.18865602	    -13.60796174	    -24.39705091	     12.25276385	     -7.47832188	     22.46314876	    -12.37094448	     13.22225725	    -48.97616585	     10.21990445	     -0.88556414	     -0.45294507	      8.95009885	     -5.06536297
      1.97000000	      6.29830231	     -0.67703111	    136.95925284	     -0.34834280	      0.95246097	      0.62741669	     13.75021588	     15.54928016	    -12.06280378	    -24.04095535	     12.38809732	     -7.55756846	     23.08769171	    -12.30370303	     13.41881252	    -47.44999073	     10.53960405	     -0.73810025	     -0.40621478	      8.72947685	     -4.54698689
      1.98000000	      6.26117032	     -0.92344985	    135.37105806	     -0.35132656	      0.95217550	      0.61915853	     12.86161035	     15.86015873	    -10.51981222	    -23.68428833	     12.54798034	     -7.64021555	     23.69583406	    -12.22646157	     13.64093200	    -45.91815718	     10.74909144	     -0.39731805	     -0.35960025	      8.51349317	     -4.04157116
      1.99000000	      6.22167893	     -1.16427481	    133.78560444	     -0.35423268	      0.95180139	      0.61101541	     11.96911867	     16.12874893	     -8.98589511	    -23.33793037	     12.71608510	     -7.72299294	     24.30224482	    -12.13952914	     13.92211508	    -44.40989804	     10.83222751	      0.10705185	     -0.32081713	      8.31875454	     -3.56156512
      2.00000000	      6.17262414	     -1.39925131	    132.21105791	     -0.35708793	      0.95134781	      0.60295034	     11.06592781	     16.34954164	     -7.46571390	    -22.99826879	     12.88777961	     -7.80035077	     24.89863313	    -12.04548667	     14.24784209	    -42.93194449	     10.82545349	      0.68728480	     -0.28909320	      8.13608757	     -3.11375146
      2.01000000	      6.12608316	     -1.61345829	    130.67356344	     -0.35990369	      0.95082159	      0.59495733	     10.13981441	     16.54347747	     -5.97940637	    -22.63736868	     13.07648594	     -7.87387155	     25.50144944	    -11.96006022	     14.62561195	    -41.50298516	     10.68548245	      1.32108849	     -0.26572673	      7.98210735	     -2.71440604
      2.02000000	      6.07145374	     -1.79739669	    129.18102593	     -0.36271553	      0.95024816	      0.58701833	      9.17551530	     16.70451871	     -4.53825003	    -22.25496935	     13.27838418	     -7.94241669	     26.09262389	    -11.88439313	     15.03477184	    -40.12286220	     10.42932599	      1.98630966	     -0.26288175	      7.85255538	     -2.36332223
      2.03000000	      6.01630966	     -1.94914274	    127.74312242	     -0.36551709	      0.94962737	      0.57912097	      8.18343312	     16.84121349	     -3.15334050	    -21.85697663	     13.48057864	     -8.00437175	     26.68017253	    -11.82501601	     15.45814747	    -38.79453642	     10.04663997	      2.64998644	     -0.27874950	      7.75072304	     -2.05719360
      2.04000000	      5.96364393	     -2.09192053	    126.35253747	     -0.36833474	      0.94892786	      0.57121900	      7.17859239	     16.94461109	     -1.80152108	    -21.44162284	     13.70659071	     -8.05970211	     27.26865398	    -11.77824332	     15.84892733	    -37.50286436	      9.62001894	      3.16399216	     -0.28518253	      7.66147504	     -1.79577394
      2.05000000	      5.93647967	     -2.22261316	    125.01195061	     -0.37113477	      0.94815088	      0.56337119	      6.19847195	     17.03533355	     -0.50916546	    -21.03782780	     13.90623485	     -8.10682524	     27.88430721	    -11.75809652	     16.20982413	    -36.25390521	      9.04886480	      3.56801378	     -0.28183379	      7.61001266	     -1.53747351
      2.06000000	      5.84939034	     -2.30081007	    123.74521012	     -0.37403698	      0.94741440	      0.55544314	      5.11324104	     17.06366292	      0.71053950	    -20.58802917	     14.16046894	     -8.16412479	     28.40233951	    -11.71390947	     16.51429086	    -35.00345792	      8.45203195	      4.03516246	     -0.34118347	      7.53666239	     -1.36899206
      2.07000000	      5.81692065	     -2.40526060	    122.51936551	     -0.37689974	      0.94653691	      0.54756688	      4.13422239	     17.08847927	      1.87016707	    -20.19893966	     14.36067678	     -8.21769285	     28.98517918	    -11.69826739	     16.76703786	    -33.77539714	      7.74192227	      4.34149957	     -0.34158481	      7.50033912	     -1.17959484
      2.08000000	      5.74146806	     -2.47089227	    121.36080790	     -0.37985377	      0.94567267	      0.53962860	      3.09404889	     17.06021316	      2.95713877	    -19.79339421	     14.60353289	     -8.29961465	     29.48797337	    -11.65582878	     16.95207468	    -32.53432330	      7.02435615	      4.65820014	     -0.38790721	      7.44813781	     -1.05444011
      2.09000000	      5.70183264	     -2.55846439	    120.23662066	     -0.38277039	      0.94469796	      0.53171354	      2.15392426	     17.02453158	      3.99606951	    -19.46739900	     14.78465603	     -8.38789594	     30.01858931	    -11.63074594	     17.06850357	    -31.28752985	      6.29023331	      4.90774171	     -0.39522849	      7.41796983	     -0.92246745
